<svg id="svg" xmlns="http://www.w3.org/2000/svg" xmlns:xlink="http://www.w3.org/1999/xlink" width="400" height="400" viewBox="0, 0, 400,400"><g id="svgg"><path id="path0" d="M135.243 50.858 C 85.136 100.590,87.708 93.681,110.511 117.301 C 128.533 135.969,128.658 136.208,123.098 141.239 C 118.089 145.772,117.483 149.832,117.483 178.808 L 117.483 211.294 145.455 239.161 L 173.427 267.028 173.427 287.984 L 173.427 308.940 156.175 326.347 C 131.073 351.674,132.337 352.448,198.810 352.448 L 251.481 352.448 252.314 369.902 C 253.503 394.828,258.302 394.674,284.274 368.875 C 309.683 343.636,309.775 341.738,286.713 318.881 L 268.531 300.861 268.588 264.416 L 268.644 227.972 228.028 188.276 L 187.413 148.581 187.413 80.184 C 187.413 -6.717,191.141 -4.622,135.243 50.858 M173.427 56.597 L 173.427 76.830 163.036 66.440 L 152.646 56.050 162.187 46.207 C 167.434 40.793,172.109 36.364,172.577 36.364 C 173.044 36.364,173.427 45.469,173.427 56.597 M154.548 109.721 L 139.933 124.337 125.902 110.517 L 111.871 96.697 126.500 81.884 L 141.129 67.070 155.147 81.088 L 169.164 95.105 154.548 109.721 M173.427 153.090 L 173.427 191.494 153.952 171.971 L 134.478 152.448 153.178 133.566 C 163.463 123.182,172.226 114.685,172.652 114.685 C 173.078 114.685,173.427 131.967,173.427 153.090 M173.427 229.231 L 173.427 247.412 152.448 226.573 L 131.469 205.734 131.469 187.553 L 131.469 169.371 152.448 190.210 L 173.427 211.049 173.427 229.231 M218.930 200.746 L 248.953 230.863 218.183 261.537 L 187.413 292.212 187.413 231.421 C 187.413 197.986,187.749 170.629,188.160 170.629 C 188.570 170.629,202.417 184.182,218.930 200.746 M251.748 293.706 L 251.748 335.664 209.126 335.664 L 166.504 335.664 208.392 293.706 C 231.430 270.629,250.610 251.748,251.014 251.748 C 251.418 251.748,251.748 270.629,251.748 293.706 M277.581 355.903 L 265.734 367.750 265.734 344.056 L 265.734 320.362 277.581 332.209 L 289.428 344.056 277.581 355.903 " stroke="none" fill="#ededf7" fill-rule="evenodd"></path></g></svg>